<svg width="184" height="190" viewBox="0 0 184 190" fill="none" xmlns="http://www.w3.org/2000/svg">
<path d="M29.7296 58.8975C31.0919 61.6162 34.8355 59.7063 36.8962 61.9425C36.8962 61.9425 37.7111 62.9485 38.1478 63.6508C43.8516 72.8226 22.2174 71.8736 16.7735 81.2019C11.1259 90.8793 11.072 98.3845 12.2215 109.53C13.6034 122.929 19.6729 128.981 29.7296 136.5C40.3583 144.447 50.6224 138.88 63.4997 142.09C77.0081 145.458 83.8479 152.427 97.4997 151C107.312 149.974 112.583 147.003 121.138 142.09C133.212 135.158 138.942 128.989 147.247 117.815C155.455 106.771 159.056 99.4489 162.848 86.2215C166.242 74.3872 170.396 66.8057 170 53.3918L169.984 52.8733C169.633 40.9151 169.401 33.01 158.848 23C150.465 15.0476 149.645 12.9534 137 12.0001C122.495 10.9065 111.118 18.3257 101.706 23.6979C89.6921 30.555 91.8538 48.5161 78.1143 50.1193C75.4857 50.426 72.7228 52.2989 71.3381 50.0436C69.7972 47.534 78.242 39.8687 78.242 38.6843C78.242 37.5 81.0526 35.116 76.1954 32.308C71.3381 29.5 35.8621 40.7525 29.791 53.3918C28.86 55.3301 28.7662 56.9751 29.7296 58.8975Z" fill="#CAF1FF"/>
<path d="M126.983 157.506C125.984 158.196 97.5334 117.732 97.5334 117.732C97.5334 117.732 129.73 153.961 129.096 155.118C128.462 156.274 127.983 156.816 126.983 157.506Z" stroke="#5F6877" stroke-width="16" stroke-linecap="round"/>
<circle cx="79" cy="91" r="39" fill="#67C8FF"/>
<path d="M75.9997 88.5003C67.9171 99.2496 59.0884 119.777 43.9997 107C35.485 99.7902 38.8455 86.8551 40.4731 75.8171C43.6151 54.5084 92.9997 42.5002 95.9997 62.5002C98.2669 77.6147 83.7705 78.1657 75.9997 88.5003Z" fill="#91D7F4"/>
<circle cx="22.5" cy="146.5" r="5.5" fill="#67C8FF"/>
<circle cx="139.5" cy="108.5" r="3.5" fill="#67C8FF"/>
<circle cx="47.5" cy="26.5" r="2.5" fill="#67C8FF"/>
<path fill-rule="evenodd" clip-rule="evenodd" d="M45.8659 56.8661C41.4546 61.2774 37.9553 66.5145 35.5679 72.2782C33.1804 78.042 31.9517 84.2195 31.9517 90.4581C31.9517 96.6967 33.1804 102.874 35.5679 108.638C37.9553 114.402 41.4546 119.639 45.8659 124.05C50.2773 128.461 55.5143 131.961 61.2781 134.348C67.0418 136.736 73.2193 137.964 79.4579 137.964C85.6965 137.964 91.8741 136.736 97.6378 134.348C103.402 131.961 108.639 128.461 113.05 124.05C121.702 115.091 126.49 103.093 126.382 90.6385C126.274 78.1842 121.278 66.2706 112.471 57.4637C103.664 48.6568 91.7508 43.6613 79.2965 43.5531C66.8421 43.4448 54.8435 48.2326 45.8849 56.8851M106.343 117.343C102.829 120.936 98.6365 123.797 94.0092 125.758C89.3819 127.72 84.4114 128.745 79.3855 128.772C74.3595 128.8 69.378 127.83 64.7294 125.92C60.0808 124.009 55.8574 121.195 52.3038 117.641C48.7501 114.086 45.9369 109.863 44.027 105.214C42.117 100.565 41.1482 95.583 41.1768 90.557C41.2054 85.5311 42.2307 80.5607 44.1934 75.9338C46.1561 71.3068 49.0171 67.1152 52.6109 63.6016C59.7646 56.6075 69.3878 52.7168 79.3922 52.7736C89.3966 52.8305 98.975 56.8304 106.049 63.9053C113.122 70.9802 117.121 80.5593 117.176 90.5637C117.231 100.568 113.338 110.191 106.343 117.343Z" fill="#8699BA"/>
<circle cx="65.3682" cy="89.5" r="4.5" fill="#3190BC"/>
<circle cx="93.5" cy="89.5" r="4.5" fill="#3190BC"/>
<path d="M57 78.0425L70.0604 73.0002" stroke="#3190BC" stroke-width="2" stroke-linecap="round"/>
<path d="M89 73L102.06 78.0423" stroke="#3190BC" stroke-width="2" stroke-linecap="round"/>
<path d="M75.8682 103.5C75.8682 103.5 78.34 102.474 80 102.5C81.5601 102.524 83.8682 103.5 83.8682 103.5" stroke="#3190BC" stroke-width="3" stroke-linecap="round"/>
<path d="M46.5001 84.4999C48.5962 75.3624 52.086 69.997 59.5892 64.3765C67.2156 58.6636 73.4958 56.8189 83.0003 57.4999" stroke="#C9F1FE" stroke-width="3" stroke-linecap="round"/>
<path d="M46 90L46.1171 92.9977" stroke="#C9F1FE" stroke-width="3" stroke-linecap="round"/>
<rect x="106" y="31" width="51" height="51" rx="12" fill="white"/>
<path d="M146.905 80.5715L133.548 91.7886L133.548 69.3544L146.905 80.5715Z" fill="white"/>
<path d="M140.234 47.7656L122.766 65.2344M122.766 47.7656L140.234 65.2344" stroke="#ED4048" stroke-width="4" stroke-linecap="round" stroke-linejoin="round"/>
</svg>
