<svg width="24" height="24" viewBox="0 0 24 24" fill="none" xmlns="http://www.w3.org/2000/svg">
<path d="M16.4942 2.43918C16.7754 2.72047 16.9334 3.10193 16.9334 3.49968C16.9334 3.89743 16.7754 4.27889 16.4942 4.56018L9.06921 11.9852L16.4942 19.4102C16.7675 19.6931 16.9186 20.072 16.9152 20.4653C16.9118 20.8586 16.7541 21.2348 16.4759 21.5129C16.1978 21.791 15.8216 21.9488 15.4283 21.9522C15.035 21.9556 14.6561 21.8044 14.3732 21.5312L5.88771 13.0457C5.60651 12.7644 5.44853 12.3829 5.44853 11.9852C5.44853 11.5874 5.60651 11.206 5.88771 10.9247L14.3732 2.43918C14.6545 2.15797 15.036 2 15.4337 2C15.8315 2 16.2129 2.15797 16.4942 2.43918Z" fill="#2F323A"/>
</svg>
